<svg width="61" height="61" viewBox="0 0 61 61" fill="none" xmlns="http://www.w3.org/2000/svg">
<path d="M30.5 26.9899C31.4309 26.9899 32.3238 27.3597 32.982 28.018C33.6403 28.6762 34.0101 29.5691 34.0101 30.5C34.0101 31.4309 33.6403 32.3238 32.982 32.982C32.3238 33.6403 31.4309 34.0101 30.5 34.0101C29.5691 34.0101 28.6762 33.6403 28.018 32.982C27.3597 32.3238 26.9899 31.4309 26.9899 30.5C26.9899 29.5691 27.3597 28.6762 28.018 28.018C28.6762 27.3597 29.5691 26.9899 30.5 26.9899ZM3.19132 3.19132C8.21078 -1.82814 19.0921 0.418328 30.5 7.89487C41.9079 0.418328 52.7892 -1.82814 57.8087 3.19132C62.8281 8.21078 60.5817 19.0921 53.1051 30.5C60.5817 41.9079 62.8281 52.7892 57.8087 57.8087C52.7892 62.8281 41.9079 60.5817 30.5 53.1051C19.0921 60.5817 8.21078 62.8281 3.19132 57.8087C-1.82814 52.7892 0.418328 41.9079 7.89487 30.5C0.418328 19.0921 -1.82814 8.21078 3.19132 3.19132ZM42.9258 18.0742C45.067 20.2505 47.0326 22.4618 48.8579 24.6732C53.7018 17.1967 55.4569 10.7732 52.8243 8.17568C50.2268 5.54309 43.8033 7.29815 36.3268 12.1421C38.5382 13.9674 40.7495 15.933 42.9258 18.0742ZM18.0742 42.9258C15.933 40.7495 13.9674 38.5382 12.1421 36.3268C7.29815 43.8033 5.54309 50.2268 8.17568 52.8243C10.7732 55.4569 17.1967 53.7018 24.6732 48.8579C22.4618 47.0326 20.2505 45.067 18.0742 42.9258ZM8.17568 8.17568C5.54309 10.7732 7.29815 17.1967 12.1421 24.6732C13.9674 22.4618 15.933 20.2505 18.0742 18.0742C20.2505 15.933 22.4618 13.9674 24.6732 12.1421C17.1967 7.29815 10.7732 5.54309 8.17568 8.17568ZM23.0586 37.9414C25.5156 40.3985 28.0429 42.645 30.5 44.6458C32.9571 42.645 35.4844 40.3985 37.9414 37.9414C40.3985 35.4844 42.645 32.9571 44.6458 30.5C42.645 28.0429 40.3985 25.5156 37.9414 23.0586C35.4844 20.6015 32.9571 18.355 30.5 16.3542C28.0429 18.355 25.5156 20.6015 23.0586 23.0586C20.6015 25.5156 18.355 28.0429 16.3542 30.5C18.355 32.9571 20.6015 35.4844 23.0586 37.9414ZM52.8243 52.8243C55.4569 50.2268 53.7018 43.8033 48.8579 36.3268C47.0326 38.5382 45.067 40.7495 42.9258 42.9258C40.7495 45.067 38.5382 47.0326 36.3268 48.8579C43.8033 53.7018 50.2268 55.4569 52.8243 52.8243Z" fill="white"/>
</svg>
