<svg width="63" height="63" viewBox="0 0 63 63" fill="none" xmlns="http://www.w3.org/2000/svg">
<path d="M13.7857 17.7833L7.49714 11.4617L11.66 7.25717L17.919 13.6086L13.7857 17.7833ZM34.4524 0.190063V9.13577H28.5476V0.190063H34.4524ZM55.5029 11.4617L49.2143 17.7833L45.081 13.6086L51.34 7.25717L55.5029 11.4617ZM9.35714 28.5181V34.4819H0.5V28.5181H9.35714ZM53.6429 28.5181H62.5V34.4819H53.6429V28.5181ZM13.7857 56.8462H49.2143C50.7803 56.8462 52.2822 57.4745 53.3896 58.5929C54.4969 59.7114 55.119 61.2283 55.119 62.81H7.88095C7.88095 61.2283 8.50306 59.7114 9.61042 58.5929C10.7178 57.4745 12.2197 56.8462 13.7857 56.8462ZM31.5 12.1177C36.1981 12.1177 40.7038 14.0027 44.0259 17.3579C47.348 20.7132 49.2143 25.264 49.2143 30.0091V53.8643H13.7857V30.0091C13.7857 25.264 15.652 20.7132 18.9741 17.3579C22.2962 14.0027 26.8019 12.1177 31.5 12.1177Z" fill="#03D6F3"/>
</svg>
