<svg width="63" height="53" viewBox="0 0 63 53" fill="none" xmlns="http://www.w3.org/2000/svg">
<path d="M51.5873 26.5H45.9109V35.0145H37.3964V40.6909H51.5873V26.5ZM17.5291 17.9855H26.0436V12.3091H11.8527V26.5H17.5291V17.9855ZM57.2636 0.956421H6.17636C4.6709 0.956421 3.22709 1.55446 2.16257 2.61899C1.09804 3.68351 0.5 5.12731 0.5 6.63277V46.3672C0.5 47.8727 1.09804 49.3165 2.16257 50.381C3.22709 51.4455 4.6709 52.0436 6.17636 52.0436H57.2636C58.7691 52.0436 60.2129 51.4455 61.2774 50.381C62.342 49.3165 62.94 47.8727 62.94 46.3672V6.63277C62.94 5.12731 62.342 3.68351 61.2774 2.61899C60.2129 1.55446 58.7691 0.956421 57.2636 0.956421ZM57.2636 46.3672H6.17636V6.63277H57.2636V46.3672Z" fill="#03D6F3"/>
</svg>
